# xmcd
#
# Track frame offsets:
#        150
#        20615
#        35257
#        56460
#        81785
#        100005
#        120607
#        145705
#        168825
#        192580
#        214395
#        230350
#        252380
#        270182
#        285565
#        307550
#        332862
#
# Disc length: 4790 seconds
#
# Revision: 3
# Processed by: cddbd v1.5.1PL2 Copyright (c) Steve Scherf et al.
# Submitted via: ExactAudioCopy v0.95b3
#
DISCID=e112b411
DTITLE=Aerosmith - Young Lust - The Aerosmith Anthology (Right Disc)
DYEAR=2001
DGENRE=Rock
TTITLE0=Eat The Rich
TTITLE1=Love Me Two Times
TTITLE2=Head First
TTITLE3=Livin' On The Edge
TTITLE4=Don't Stop
TTITLE5=Can't Stop Messin'
TTITLE6=Amazing
TTITLE7=Cryin'
TTITLE8=Crazy
TTITLE9=Shut Up And Dance
TTITLE10=Deuces Are Wild
TTITLE11=Walk On Water
TTITLE12=Blind Man
TTITLE13=Falling In Love (Is Hard On The Knees)
TTITLE14=Dream On
TTITLE15=Hole In My Soul
TTITLE16=Sweet Emotion
EXTD=YEAR: 2001
EXTT0=
EXTT1=
EXTT2=
EXTT3=
EXTT4=
EXTT5=
EXTT6=
EXTT7=
EXTT8=
EXTT9=
EXTT10=
EXTT11=
EXTT12=
EXTT13=
EXTT14=
EXTT15=
EXTT16=
PLAYORDER=
